<mxfile host="app.diagrams.net" agent="Mozilla/5.0 (Windows NT 10.0; Win64; x64) AppleWebKit/537.36 (KHTML, like Gecko) Chrome/127.0.0.0 Safari/537.36" version="24.7.7">
  <diagram name="Page-1" id="BlaXqOatWNtYXO1FoWoj">
    <mxGraphModel dx="2261" dy="1915" grid="1" gridSize="10" guides="1" tooltips="1" connect="1" arrows="1" fold="1" page="1" pageScale="1" pageWidth="827" pageHeight="1169" math="0" shadow="0">
      <root>
        <mxCell id="0" />
        <mxCell id="1" parent="0" />
        <mxCell id="MTMWA5hn5RihW3UU8o8F-1" value="" style="shape=table;startSize=0;container=1;collapsible=0;childLayout=tableLayout;fontSize=16;" vertex="1" parent="1">
          <mxGeometry x="-260" y="-390" width="610" height="570" as="geometry" />
        </mxCell>
        <mxCell id="MTMWA5hn5RihW3UU8o8F-2" value="" style="shape=tableRow;horizontal=0;startSize=0;swimlaneHead=0;swimlaneBody=0;strokeColor=inherit;top=0;left=0;bottom=0;right=0;collapsible=0;dropTarget=0;fillColor=none;points=[[0,0.5],[1,0.5]];portConstraint=eastwest;fontSize=16;" vertex="1" parent="MTMWA5hn5RihW3UU8o8F-1">
          <mxGeometry width="610" height="24" as="geometry" />
        </mxCell>
        <mxCell id="MTMWA5hn5RihW3UU8o8F-3" value="&lt;b&gt;客户端&lt;/b&gt;" style="shape=partialRectangle;html=1;whiteSpace=wrap;connectable=0;strokeColor=inherit;overflow=hidden;fillColor=none;top=0;left=0;bottom=0;right=0;pointerEvents=1;fontSize=16;" vertex="1" parent="MTMWA5hn5RihW3UU8o8F-2">
          <mxGeometry width="140" height="24" as="geometry">
            <mxRectangle width="140" height="24" as="alternateBounds" />
          </mxGeometry>
        </mxCell>
        <mxCell id="MTMWA5hn5RihW3UU8o8F-4" value="&lt;b&gt;服务端&lt;/b&gt;" style="shape=partialRectangle;html=1;whiteSpace=wrap;connectable=0;strokeColor=inherit;overflow=hidden;fillColor=none;top=0;left=0;bottom=0;right=0;pointerEvents=1;fontSize=16;" vertex="1" parent="MTMWA5hn5RihW3UU8o8F-2">
          <mxGeometry x="140" width="270" height="24" as="geometry">
            <mxRectangle width="270" height="24" as="alternateBounds" />
          </mxGeometry>
        </mxCell>
        <mxCell id="MTMWA5hn5RihW3UU8o8F-5" value="&lt;b&gt;数据库&lt;/b&gt;" style="shape=partialRectangle;html=1;whiteSpace=wrap;connectable=0;strokeColor=inherit;overflow=hidden;fillColor=none;top=0;left=0;bottom=0;right=0;pointerEvents=1;fontSize=16;" vertex="1" parent="MTMWA5hn5RihW3UU8o8F-2">
          <mxGeometry x="410" width="200" height="24" as="geometry">
            <mxRectangle width="200" height="24" as="alternateBounds" />
          </mxGeometry>
        </mxCell>
        <mxCell id="MTMWA5hn5RihW3UU8o8F-6" value="" style="shape=tableRow;horizontal=0;startSize=0;swimlaneHead=0;swimlaneBody=0;strokeColor=inherit;top=0;left=0;bottom=0;right=0;collapsible=0;dropTarget=0;fillColor=none;points=[[0,0.5],[1,0.5]];portConstraint=eastwest;fontSize=16;" vertex="1" parent="MTMWA5hn5RihW3UU8o8F-1">
          <mxGeometry y="24" width="610" height="546" as="geometry" />
        </mxCell>
        <mxCell id="MTMWA5hn5RihW3UU8o8F-7" value="" style="shape=partialRectangle;html=1;whiteSpace=wrap;connectable=0;strokeColor=inherit;overflow=hidden;fillColor=none;top=0;left=0;bottom=0;right=0;pointerEvents=1;fontSize=16;" vertex="1" parent="MTMWA5hn5RihW3UU8o8F-6">
          <mxGeometry width="140" height="546" as="geometry">
            <mxRectangle width="140" height="546" as="alternateBounds" />
          </mxGeometry>
        </mxCell>
        <mxCell id="MTMWA5hn5RihW3UU8o8F-8" value="" style="shape=partialRectangle;html=1;whiteSpace=wrap;connectable=0;strokeColor=inherit;overflow=hidden;fillColor=none;top=0;left=0;bottom=0;right=0;pointerEvents=1;fontSize=16;" vertex="1" parent="MTMWA5hn5RihW3UU8o8F-6">
          <mxGeometry x="140" width="270" height="546" as="geometry">
            <mxRectangle width="270" height="546" as="alternateBounds" />
          </mxGeometry>
        </mxCell>
        <mxCell id="MTMWA5hn5RihW3UU8o8F-9" value="" style="shape=partialRectangle;html=1;whiteSpace=wrap;connectable=0;strokeColor=inherit;overflow=hidden;fillColor=none;top=0;left=0;bottom=0;right=0;pointerEvents=1;fontSize=16;" vertex="1" parent="MTMWA5hn5RihW3UU8o8F-6">
          <mxGeometry x="410" width="200" height="546" as="geometry">
            <mxRectangle width="200" height="546" as="alternateBounds" />
          </mxGeometry>
        </mxCell>
        <mxCell id="MTMWA5hn5RihW3UU8o8F-10" value="系统监控页面请求" style="rounded=0;whiteSpace=wrap;html=1;" vertex="1" parent="MTMWA5hn5RihW3UU8o8F-6">
          <mxGeometry x="610" width="NaN" height="546" as="geometry">
            <mxRectangle width="NaN" height="546" as="alternateBounds" />
          </mxGeometry>
        </mxCell>
        <mxCell id="MTMWA5hn5RihW3UU8o8F-11" value="" style="shape=document;whiteSpace=wrap;html=1;boundedLbl=1;rounded=1;" vertex="1" parent="MTMWA5hn5RihW3UU8o8F-6">
          <mxGeometry width="NaN" height="546" as="geometry">
            <mxRectangle width="NaN" height="546" as="alternateBounds" />
          </mxGeometry>
        </mxCell>
        <mxCell id="MTMWA5hn5RihW3UU8o8F-12" value="" style="shape=document;whiteSpace=wrap;html=1;boundedLbl=1;rounded=1;" vertex="1" parent="MTMWA5hn5RihW3UU8o8F-6">
          <mxGeometry width="NaN" height="546" as="geometry">
            <mxRectangle width="NaN" height="546" as="alternateBounds" />
          </mxGeometry>
        </mxCell>
        <mxCell id="MTMWA5hn5RihW3UU8o8F-13" value="" style="whiteSpace=wrap;html=1;rounded=1;" vertex="1" parent="MTMWA5hn5RihW3UU8o8F-6">
          <mxGeometry width="NaN" height="546" as="geometry">
            <mxRectangle width="NaN" height="546" as="alternateBounds" />
          </mxGeometry>
        </mxCell>
        <mxCell id="MTMWA5hn5RihW3UU8o8F-14" value="" style="shape=document;whiteSpace=wrap;html=1;boundedLbl=1;rounded=1;" vertex="1" parent="MTMWA5hn5RihW3UU8o8F-6">
          <mxGeometry width="NaN" height="546" as="geometry">
            <mxRectangle width="NaN" height="546" as="alternateBounds" />
          </mxGeometry>
        </mxCell>
        <mxCell id="MTMWA5hn5RihW3UU8o8F-36" value="" style="whiteSpace=wrap;html=1;rounded=1;" vertex="1" parent="MTMWA5hn5RihW3UU8o8F-6">
          <mxGeometry width="NaN" height="546" as="geometry">
            <mxRectangle width="NaN" height="546" as="alternateBounds" />
          </mxGeometry>
        </mxCell>
        <mxCell id="MTMWA5hn5RihW3UU8o8F-41" value="" style="rhombus;whiteSpace=wrap;html=1;rounded=1;" vertex="1" parent="MTMWA5hn5RihW3UU8o8F-6">
          <mxGeometry width="NaN" height="546" as="geometry">
            <mxRectangle width="NaN" height="546" as="alternateBounds" />
          </mxGeometry>
        </mxCell>
        <mxCell id="MTMWA5hn5RihW3UU8o8F-43" value="" style="rhombus;whiteSpace=wrap;html=1;rounded=1;" vertex="1" parent="MTMWA5hn5RihW3UU8o8F-6">
          <mxGeometry width="NaN" height="546" as="geometry">
            <mxRectangle width="NaN" height="546" as="alternateBounds" />
          </mxGeometry>
        </mxCell>
        <mxCell id="MTMWA5hn5RihW3UU8o8F-59" value="" style="shape=document;whiteSpace=wrap;html=1;boundedLbl=1;" vertex="1" parent="MTMWA5hn5RihW3UU8o8F-6">
          <mxGeometry width="NaN" height="546" as="geometry">
            <mxRectangle width="NaN" height="546" as="alternateBounds" />
          </mxGeometry>
        </mxCell>
        <mxCell id="MTMWA5hn5RihW3UU8o8F-18" value="" style="edgeStyle=orthogonalEdgeStyle;rounded=0;orthogonalLoop=1;jettySize=auto;html=1;" edge="1" parent="1" target="MTMWA5hn5RihW3UU8o8F-11">
          <mxGeometry relative="1" as="geometry">
            <mxPoint x="375" y="-140" as="sourcePoint" />
          </mxGeometry>
        </mxCell>
        <mxCell id="MTMWA5hn5RihW3UU8o8F-19" value="" style="edgeStyle=orthogonalEdgeStyle;rounded=0;orthogonalLoop=1;jettySize=auto;html=1;" edge="1" parent="1" target="MTMWA5hn5RihW3UU8o8F-12">
          <mxGeometry relative="1" as="geometry">
            <mxPoint x="375" y="-140" as="sourcePoint" />
          </mxGeometry>
        </mxCell>
        <mxCell id="MTMWA5hn5RihW3UU8o8F-20" value="" style="edgeStyle=orthogonalEdgeStyle;rounded=0;orthogonalLoop=1;jettySize=auto;html=1;" edge="1" parent="1" target="MTMWA5hn5RihW3UU8o8F-13">
          <mxGeometry relative="1" as="geometry">
            <mxPoint x="375" y="-140" as="sourcePoint" />
          </mxGeometry>
        </mxCell>
        <mxCell id="MTMWA5hn5RihW3UU8o8F-21" value="" style="edgeStyle=orthogonalEdgeStyle;rounded=0;orthogonalLoop=1;jettySize=auto;html=1;" edge="1" parent="1" target="MTMWA5hn5RihW3UU8o8F-14">
          <mxGeometry relative="1" as="geometry">
            <mxPoint x="375" y="-140" as="sourcePoint" />
          </mxGeometry>
        </mxCell>
        <mxCell id="MTMWA5hn5RihW3UU8o8F-31" value="" style="rounded=0;whiteSpace=wrap;html=1;" vertex="1" parent="1">
          <mxGeometry x="350" y="-390" width="30" height="570" as="geometry" />
        </mxCell>
        <mxCell id="MTMWA5hn5RihW3UU8o8F-32" value="&lt;b&gt;执行流程&lt;/b&gt;" style="text;html=1;align=center;verticalAlign=middle;resizable=0;points=[];autosize=1;strokeColor=none;fillColor=none;shadow=1;textDirection=vertical-lr;" vertex="1" parent="1">
          <mxGeometry x="320" y="-330" width="70" height="30" as="geometry" />
        </mxCell>
        <mxCell id="MTMWA5hn5RihW3UU8o8F-33" value="Pool" style="rounded=0;whiteSpace=wrap;html=1;" vertex="1" parent="1">
          <mxGeometry x="-260" y="-420" width="640" height="30" as="geometry" />
        </mxCell>
        <mxCell id="MTMWA5hn5RihW3UU8o8F-37" value="" style="edgeStyle=orthogonalEdgeStyle;rounded=0;orthogonalLoop=1;jettySize=auto;html=1;" edge="1" parent="1" source="MTMWA5hn5RihW3UU8o8F-35" target="MTMWA5hn5RihW3UU8o8F-36">
          <mxGeometry relative="1" as="geometry" />
        </mxCell>
        <mxCell id="MTMWA5hn5RihW3UU8o8F-35" value="用户终端信息" style="rounded=1;whiteSpace=wrap;html=1;" vertex="1" parent="1">
          <mxGeometry x="-250" y="-330" width="110" height="40" as="geometry" />
        </mxCell>
        <mxCell id="MTMWA5hn5RihW3UU8o8F-42" value="" style="edgeStyle=orthogonalEdgeStyle;rounded=0;orthogonalLoop=1;jettySize=auto;html=1;" edge="1" parent="1" source="MTMWA5hn5RihW3UU8o8F-38" target="MTMWA5hn5RihW3UU8o8F-41">
          <mxGeometry relative="1" as="geometry" />
        </mxCell>
        <mxCell id="MTMWA5hn5RihW3UU8o8F-44" value="" style="edgeStyle=orthogonalEdgeStyle;rounded=0;orthogonalLoop=1;jettySize=auto;html=1;" edge="1" parent="1" source="MTMWA5hn5RihW3UU8o8F-38" target="MTMWA5hn5RihW3UU8o8F-43">
          <mxGeometry relative="1" as="geometry" />
        </mxCell>
        <mxCell id="MTMWA5hn5RihW3UU8o8F-38" value="adc-api" style="rounded=1;whiteSpace=wrap;html=1;" vertex="1" parent="1">
          <mxGeometry x="-50" y="-300" width="120" height="60" as="geometry" />
        </mxCell>
        <mxCell id="MTMWA5hn5RihW3UU8o8F-39" value="" style="endArrow=classic;html=1;rounded=0;exitX=1;exitY=0.5;exitDx=0;exitDy=0;entryX=0.5;entryY=0;entryDx=0;entryDy=0;" edge="1" parent="1" source="MTMWA5hn5RihW3UU8o8F-35" target="MTMWA5hn5RihW3UU8o8F-38">
          <mxGeometry width="50" height="50" relative="1" as="geometry">
            <mxPoint x="-40" y="-40" as="sourcePoint" />
            <mxPoint x="10" y="-90" as="targetPoint" />
            <Array as="points">
              <mxPoint x="10" y="-310" />
            </Array>
          </mxGeometry>
        </mxCell>
        <mxCell id="MTMWA5hn5RihW3UU8o8F-60" value="" style="edgeStyle=orthogonalEdgeStyle;rounded=0;orthogonalLoop=1;jettySize=auto;html=1;" edge="1" parent="1" target="MTMWA5hn5RihW3UU8o8F-59">
          <mxGeometry relative="1" as="geometry">
            <mxPoint x="10" as="sourcePoint" />
          </mxGeometry>
        </mxCell>
        <mxCell id="MTMWA5hn5RihW3UU8o8F-55" value="" style="endArrow=classic;html=1;rounded=0;entryX=0.5;entryY=1;entryDx=0;entryDy=0;exitX=0;exitY=0.5;exitDx=0;exitDy=0;" edge="1" parent="1" source="MTMWA5hn5RihW3UU8o8F-73" target="MTMWA5hn5RihW3UU8o8F-35">
          <mxGeometry width="50" height="50" relative="1" as="geometry">
            <mxPoint x="10" y="-120.00999999999999" as="sourcePoint" />
            <mxPoint x="10" y="-90" as="targetPoint" />
            <Array as="points">
              <mxPoint x="-195" y="-80" />
            </Array>
          </mxGeometry>
        </mxCell>
        <mxCell id="MTMWA5hn5RihW3UU8o8F-56" value="" style="endArrow=classic;html=1;rounded=0;entryX=0.5;entryY=1;entryDx=0;entryDy=0;exitX=0;exitY=0.5;exitDx=0;exitDy=0;" edge="1" parent="1" source="MTMWA5hn5RihW3UU8o8F-75" target="MTMWA5hn5RihW3UU8o8F-35">
          <mxGeometry width="50" height="50" relative="1" as="geometry">
            <mxPoint x="10" y="-10" as="sourcePoint" />
            <mxPoint x="-200" y="-180" as="targetPoint" />
            <Array as="points">
              <mxPoint x="-195" y="20" />
            </Array>
          </mxGeometry>
        </mxCell>
        <mxCell id="MTMWA5hn5RihW3UU8o8F-61" value="&lt;span style=&quot;font-size:12.0pt;line-height:&lt;br/&gt;130%;font-family:宋体;mso-bidi-font-family:&amp;quot;Times New Roman&amp;quot;;mso-font-kerning:&lt;br/&gt;1.0pt;mso-ansi-language:EN-US;mso-fareast-language:ZH-CN;mso-bidi-language:&lt;br/&gt;AR-SA&quot; lang=&quot;EN-US&quot;&gt;device&lt;/span&gt;" style="shape=document;whiteSpace=wrap;html=1;boundedLbl=1;" vertex="1" parent="1">
          <mxGeometry x="200" y="-300" width="100" height="60" as="geometry" />
        </mxCell>
        <mxCell id="MTMWA5hn5RihW3UU8o8F-62" value="postgres" style="text;html=1;align=center;verticalAlign=middle;whiteSpace=wrap;rounded=0;" vertex="1" parent="1">
          <mxGeometry x="220" y="-340" width="60" height="30" as="geometry" />
        </mxCell>
        <mxCell id="MTMWA5hn5RihW3UU8o8F-66" value="数据库查询" style="text;html=1;align=center;verticalAlign=middle;whiteSpace=wrap;rounded=0;" vertex="1" parent="1">
          <mxGeometry x="100" y="-240" width="80" height="30" as="geometry" />
        </mxCell>
        <mxCell id="MTMWA5hn5RihW3UU8o8F-67" value="数据回传" style="text;html=1;align=center;verticalAlign=middle;resizable=0;points=[];autosize=1;strokeColor=none;fillColor=none;" vertex="1" parent="1">
          <mxGeometry x="-160" y="130" width="70" height="30" as="geometry" />
        </mxCell>
        <mxCell id="MTMWA5hn5RihW3UU8o8F-69" value="" style="edgeStyle=orthogonalEdgeStyle;rounded=0;orthogonalLoop=1;jettySize=auto;html=1;" edge="1" parent="1" source="MTMWA5hn5RihW3UU8o8F-38">
          <mxGeometry relative="1" as="geometry">
            <mxPoint x="10" y="-240" as="sourcePoint" />
            <mxPoint x="9" y="-210" as="targetPoint" />
          </mxGeometry>
        </mxCell>
        <mxCell id="MTMWA5hn5RihW3UU8o8F-72" value="&lt;span style=&quot;text-wrap: nowrap;&quot;&gt;用户设备信息&lt;/span&gt;" style="rounded=1;whiteSpace=wrap;html=1;" vertex="1" parent="1">
          <mxGeometry x="-50" y="-210" width="120" height="60" as="geometry" />
        </mxCell>
        <mxCell id="MTMWA5hn5RihW3UU8o8F-73" value="&lt;span style=&quot;text-wrap: nowrap;&quot;&gt;终端资产信息&lt;/span&gt;" style="rounded=1;whiteSpace=wrap;html=1;" vertex="1" parent="1">
          <mxGeometry x="-50" y="-110" width="120" height="60" as="geometry" />
        </mxCell>
        <mxCell id="MTMWA5hn5RihW3UU8o8F-75" value="&lt;span style=&quot;text-wrap: nowrap;&quot;&gt;用户信息&lt;/span&gt;" style="rounded=1;whiteSpace=wrap;html=1;" vertex="1" parent="1">
          <mxGeometry x="-50" y="-10" width="120" height="60" as="geometry" />
        </mxCell>
        <mxCell id="MTMWA5hn5RihW3UU8o8F-87" value="" style="edgeStyle=orthogonalEdgeStyle;rounded=0;orthogonalLoop=1;jettySize=auto;html=1;" edge="1" parent="1" source="MTMWA5hn5RihW3UU8o8F-76" target="MTMWA5hn5RihW3UU8o8F-86">
          <mxGeometry relative="1" as="geometry" />
        </mxCell>
        <mxCell id="MTMWA5hn5RihW3UU8o8F-76" value="&lt;span style=&quot;text-wrap: nowrap;&quot;&gt;软件信息&lt;/span&gt;" style="rounded=1;whiteSpace=wrap;html=1;" vertex="1" parent="1">
          <mxGeometry x="-50" y="90" width="120" height="60" as="geometry" />
        </mxCell>
        <mxCell id="MTMWA5hn5RihW3UU8o8F-80" value="" style="endArrow=classic;html=1;rounded=0;exitX=0;exitY=0.5;exitDx=0;exitDy=0;entryX=0.5;entryY=1;entryDx=0;entryDy=0;" edge="1" parent="1" source="MTMWA5hn5RihW3UU8o8F-72" target="MTMWA5hn5RihW3UU8o8F-35">
          <mxGeometry width="50" height="50" relative="1" as="geometry">
            <mxPoint x="390" y="-90" as="sourcePoint" />
            <mxPoint x="440" y="-140" as="targetPoint" />
            <Array as="points">
              <mxPoint x="-195" y="-180" />
            </Array>
          </mxGeometry>
        </mxCell>
        <mxCell id="MTMWA5hn5RihW3UU8o8F-84" value="数据库同步" style="text;html=1;align=center;verticalAlign=middle;whiteSpace=wrap;rounded=0;" vertex="1" parent="1">
          <mxGeometry x="110" y="-110" width="80" height="30" as="geometry" />
        </mxCell>
        <mxCell id="MTMWA5hn5RihW3UU8o8F-86" value="&lt;span style=&quot;font-size:12.0pt;line-height:&lt;br/&gt;130%;font-family:宋体;mso-bidi-font-family:&amp;quot;Times New Roman&amp;quot;;mso-font-kerning:&lt;br/&gt;1.0pt;mso-ansi-language:EN-US;mso-fareast-language:ZH-CN;mso-bidi-language:&lt;br/&gt;AR-SA&quot; lang=&quot;EN-US&quot;&gt;device_&lt;br&gt;software&lt;/span&gt;" style="shape=document;whiteSpace=wrap;html=1;boundedLbl=1;" vertex="1" parent="1">
          <mxGeometry x="180" y="90" width="100" height="60" as="geometry" />
        </mxCell>
        <mxCell id="MTMWA5hn5RihW3UU8o8F-88" value="" style="endArrow=classic;html=1;rounded=0;exitX=0.53;exitY=0.783;exitDx=0;exitDy=0;exitPerimeter=0;entryX=0.5;entryY=1;entryDx=0;entryDy=0;" edge="1" parent="1" source="MTMWA5hn5RihW3UU8o8F-86" target="MTMWA5hn5RihW3UU8o8F-35">
          <mxGeometry width="50" height="50" relative="1" as="geometry">
            <mxPoint x="390" y="-90" as="sourcePoint" />
            <mxPoint x="440" y="-140" as="targetPoint" />
            <Array as="points">
              <mxPoint x="233" y="160" />
              <mxPoint x="-195" y="160" />
            </Array>
          </mxGeometry>
        </mxCell>
        <mxCell id="MTMWA5hn5RihW3UU8o8F-91" value="" style="endArrow=classic;startArrow=classic;html=1;rounded=0;exitX=1;exitY=0.5;exitDx=0;exitDy=0;entryX=0;entryY=0.5;entryDx=0;entryDy=0;" edge="1" parent="1" source="MTMWA5hn5RihW3UU8o8F-72" target="MTMWA5hn5RihW3UU8o8F-61">
          <mxGeometry width="50" height="50" relative="1" as="geometry">
            <mxPoint x="390" y="-90" as="sourcePoint" />
            <mxPoint x="440" y="-140" as="targetPoint" />
          </mxGeometry>
        </mxCell>
        <mxCell id="MTMWA5hn5RihW3UU8o8F-92" value="" style="endArrow=classic;startArrow=classic;html=1;rounded=0;entryX=0.55;entryY=0.833;entryDx=0;entryDy=0;entryPerimeter=0;" edge="1" parent="1" target="MTMWA5hn5RihW3UU8o8F-61">
          <mxGeometry width="50" height="50" relative="1" as="geometry">
            <mxPoint x="70" y="20" as="sourcePoint" />
            <mxPoint x="440" y="-140" as="targetPoint" />
            <Array as="points">
              <mxPoint x="255" y="20" />
            </Array>
          </mxGeometry>
        </mxCell>
        <mxCell id="MTMWA5hn5RihW3UU8o8F-93" value="" style="endArrow=classic;startArrow=classic;html=1;rounded=0;exitX=1;exitY=0.5;exitDx=0;exitDy=0;entryX=0.3;entryY=1;entryDx=0;entryDy=0;entryPerimeter=0;" edge="1" parent="1" source="MTMWA5hn5RihW3UU8o8F-73" target="MTMWA5hn5RihW3UU8o8F-61">
          <mxGeometry width="50" height="50" relative="1" as="geometry">
            <mxPoint x="390" y="-90" as="sourcePoint" />
            <mxPoint x="440" y="-140" as="targetPoint" />
            <Array as="points">
              <mxPoint x="230" y="-80" />
            </Array>
          </mxGeometry>
        </mxCell>
        <mxCell id="MTMWA5hn5RihW3UU8o8F-94" value="接口请求" style="text;html=1;align=center;verticalAlign=middle;resizable=0;points=[];autosize=1;strokeColor=none;fillColor=none;" vertex="1" parent="1">
          <mxGeometry x="-140" y="-340" width="70" height="30" as="geometry" />
        </mxCell>
        <mxCell id="MTMWA5hn5RihW3UU8o8F-95" value="查询|编辑" style="text;html=1;align=center;verticalAlign=middle;resizable=0;points=[];autosize=1;strokeColor=none;fillColor=none;" vertex="1" parent="1">
          <mxGeometry x="30" y="-140" width="70" height="30" as="geometry" />
        </mxCell>
        <mxCell id="MTMWA5hn5RihW3UU8o8F-96" value="查询" style="text;html=1;align=center;verticalAlign=middle;resizable=0;points=[];autosize=1;strokeColor=none;fillColor=none;" vertex="1" parent="1">
          <mxGeometry y="-240" width="50" height="30" as="geometry" />
        </mxCell>
        <mxCell id="MTMWA5hn5RihW3UU8o8F-97" value="查询" style="text;html=1;align=center;verticalAlign=middle;resizable=0;points=[];autosize=1;strokeColor=none;fillColor=none;" vertex="1" parent="1">
          <mxGeometry x="20" y="-40" width="50" height="30" as="geometry" />
        </mxCell>
        <mxCell id="MTMWA5hn5RihW3UU8o8F-98" value="查询" style="text;html=1;align=center;verticalAlign=middle;resizable=0;points=[];autosize=1;strokeColor=none;fillColor=none;" vertex="1" parent="1">
          <mxGeometry x="20" y="60" width="50" height="30" as="geometry" />
        </mxCell>
        <mxCell id="MTMWA5hn5RihW3UU8o8F-99" value="" style="endArrow=none;html=1;rounded=0;entryX=0.5;entryY=1;entryDx=0;entryDy=0;" edge="1" parent="1" source="MTMWA5hn5RihW3UU8o8F-73" target="MTMWA5hn5RihW3UU8o8F-72">
          <mxGeometry width="50" height="50" relative="1" as="geometry">
            <mxPoint x="390" y="-90" as="sourcePoint" />
            <mxPoint x="440" y="-140" as="targetPoint" />
          </mxGeometry>
        </mxCell>
        <mxCell id="MTMWA5hn5RihW3UU8o8F-101" value="" style="endArrow=none;html=1;rounded=0;exitX=0.5;exitY=1;exitDx=0;exitDy=0;entryX=0.5;entryY=0;entryDx=0;entryDy=0;" edge="1" parent="1" source="MTMWA5hn5RihW3UU8o8F-73" target="MTMWA5hn5RihW3UU8o8F-75">
          <mxGeometry width="50" height="50" relative="1" as="geometry">
            <mxPoint x="390" y="-90" as="sourcePoint" />
            <mxPoint x="440" y="-140" as="targetPoint" />
          </mxGeometry>
        </mxCell>
        <mxCell id="MTMWA5hn5RihW3UU8o8F-103" value="" style="endArrow=none;html=1;rounded=0;exitX=0.5;exitY=1;exitDx=0;exitDy=0;entryX=0.5;entryY=0;entryDx=0;entryDy=0;" edge="1" parent="1" source="MTMWA5hn5RihW3UU8o8F-75" target="MTMWA5hn5RihW3UU8o8F-76">
          <mxGeometry width="50" height="50" relative="1" as="geometry">
            <mxPoint x="390" y="-90" as="sourcePoint" />
            <mxPoint x="440" y="-140" as="targetPoint" />
          </mxGeometry>
        </mxCell>
      </root>
    </mxGraphModel>
  </diagram>
</mxfile>
